<svg width="820" height="360" viewBox="0 0 820 360" fill="none" xmlns="http://www.w3.org/2000/svg">
  <defs>
    <linearGradient id="bg" x1="0" y1="0" x2="820" y2="360" gradientUnits="userSpaceOnUse">
      <stop stop-color="#F8FBFF"/>
      <stop offset="1" stop-color="#EAF2FF"/>
    </linearGradient>
    <linearGradient id="heartGrad" x1="320" y1="70" x2="500" y2="260" gradientUnits="userSpaceOnUse">
      <stop stop-color="#FF6E8A"/>
      <stop offset="1" stop-color="#E54870"/>
    </linearGradient>
    <linearGradient id="lineGrad" x1="120" y1="180" x2="700" y2="180" gradientUnits="userSpaceOnUse">
      <stop stop-color="#2C63D7" stop-opacity="0"/>
      <stop offset="0.18" stop-color="#2C63D7"/>
      <stop offset="0.82" stop-color="#2C63D7"/>
      <stop offset="1" stop-color="#2C63D7" stop-opacity="0"/>
    </linearGradient>
  </defs>

  <rect x="12" y="12" width="796" height="336" rx="24" fill="url(#bg)" stroke="#CFE0FF"/>

  <path d="M130 188H250L278 146L305 214L333 170L362 188H690" stroke="url(#lineGrad)" stroke-width="8" stroke-linecap="round" stroke-linejoin="round"/>

  <path d="M410 96C383 67 336 75 320 112C304 149 320 190 410 264C500 190 516 149 500 112C484 75 437 67 410 96Z" fill="url(#heartGrad)"/>

  <circle cx="410" cy="166" r="96" stroke="#2C63D7" stroke-opacity="0.2" stroke-width="6"/>
  <circle cx="410" cy="166" r="124" stroke="#2C63D7" stroke-opacity="0.12" stroke-width="6"/>

  <rect x="548" y="88" width="208" height="82" rx="14" fill="#FFFFFF" stroke="#D9E6FF"/>
  <text x="566" y="124" font-family="Poppins, Arial, sans-serif" font-size="18" fill="#244EA8">Prediction Model</text>
  <text x="566" y="148" font-family="Poppins, Arial, sans-serif" font-size="15" fill="#3D5B99">Heart Risk Analysis</text>
</svg>
